HIERARCHY
ROOT root
{
	OFFSET	0	13.1	24.9
	CHANNELS 6  Xposition Yposition Zposition Xrotation Yrotation Zrotation
	JOINT spine_1
	{
		OFFSET	0	9.99999	0
		CHANNELS 3  Xrotation Yrotation Zrotation
		JOINT spine_2
		{
			OFFSET	0	112	-10
			CHANNELS 3  Xrotation Yrotation Zrotation
			JOINT spine_3
			{
				OFFSET	0	206.5	19.3
				CHANNELS 3  Xrotation Yrotation Zrotation
				JOINT spine_4
				{
					OFFSET	0	110.4	14.6
					CHANNELS 3  Xrotation Yrotation Zrotation
					JOINT neck_1
					{
						OFFSET	0	71.8	-50.3
						CHANNELS 3  Xrotation Yrotation Zrotation
						JOINT neck_2
						{
							OFFSET	0	86.2	-25.8
							CHANNELS 3  Xrotation Yrotation Zrotation
							JOINT head_ee
							{
								OFFSET	0	179.8	-8.7
								CHANNELS 3  Xrotation Yrotation Zrotation
								End Site
								{
									OFFSET	1	0	0
								}
							}
						}
					}
					JOINT left_clavicle
					{
						OFFSET	-43.2	22.4	-70.8
						CHANNELS 3  Xrotation Yrotation Zrotation
						JOINT left_shoulder
						{
							OFFSET	-93.9	-5.79999	48.7
							CHANNELS 3  Xrotation Yrotation Zrotation
							JOINT left_elbow
							{
								OFFSET	-291.4	-30.8	15.2
								CHANNELS 3  Xrotation Yrotation Zrotation
								JOINT left_lowarm_twist
								{
									OFFSET	-110.7	-3.89999	13.6
									CHANNELS 3  Xrotation Yrotation Zrotation
									JOINT left_hand
									{
										OFFSET	-110.7	-3.89999	13.6
										CHANNELS 3  Xrotation Yrotation Zrotation
										JOINT left_ee
										{
											OFFSET	-80.8	-5.10001	12.1
											CHANNELS 3  Xrotation Yrotation Zrotation
											End Site
											{
												OFFSET	1	0	0
											}
										}
									}
								}
							}
						}
					}
					JOINT right_clavicle
					{
						OFFSET	43.2	22.4	-70.8
						CHANNELS 3  Xrotation Yrotation Zrotation
						JOINT right_shoulder
						{
							OFFSET	93.9	-5.79999	48.7
							CHANNELS 3  Xrotation Yrotation Zrotation
							JOINT right_elbow
							{
								OFFSET	291.4	-30.8	15.2
								CHANNELS 3  Xrotation Yrotation Zrotation
								JOINT right_lowarm_twist
								{
									OFFSET	110.7	-3.89999	13.6
									CHANNELS 3  Xrotation Yrotation Zrotation
									JOINT right_hand
									{
										OFFSET	110.7	-3.89999	13.6
										CHANNELS 3  Xrotation Yrotation Zrotation
										JOINT right_ee
										{
											OFFSET	80.8	-5.10001	12.1
											CHANNELS 3  Xrotation Yrotation Zrotation
											End Site
											{
												OFFSET	1	0	0
											}
										}
									}
								}
							}
						}
					}
				}
			}
		}
	}
	JOINT left_hip
	{
		OFFSET	-82.8	-127.5	0.300001
		CHANNELS 3  Xrotation Yrotation Zrotation
		JOINT left_knee
		{
			OFFSET	-28.2	-396.7	2.2
			CHANNELS 3  Xrotation Yrotation Zrotation
			JOINT left_ankle
			{
				OFFSET	-11.7	-411.3	35.4
				CHANNELS 3  Xrotation Yrotation Zrotation
				JOINT left_toes
				{
					OFFSET	0	-60	-88.6
					CHANNELS 3  Xrotation Yrotation Zrotation
					JOINT left_foot_ee
					{
						OFFSET	-22.5	-16.5	-42.2
						CHANNELS 3  Xrotation Yrotation Zrotation
						End Site
						{
							OFFSET	1	0	0
						}
					}
				}
			}
		}
	}
	JOINT right_hip
	{
		OFFSET	82.8	-127.5	0.300001
		CHANNELS 3  Xrotation Yrotation Zrotation
		JOINT right_knee
		{
			OFFSET	28.2	-396.7	2.2
			CHANNELS 3  Xrotation Yrotation Zrotation
			JOINT right_ankle
			{
				OFFSET	11.7	-411.3	35.4
				CHANNELS 3  Xrotation Yrotation Zrotation
				JOINT right_toes
				{
					OFFSET	0	-60	-88.6
					CHANNELS 3  Xrotation Yrotation Zrotation
					JOINT right_foot_ee
					{
						OFFSET	22.5	-16.5	-42.2
						CHANNELS 3  Xrotation Yrotation Zrotation
						End Site
						{
							OFFSET	1	0	0
						}
					}
				}
			}
		}
	}
}
MOTION
Frames: 6
Frame Time: 0.02
2800.94 716.97 -1473.77 34.9450010676 75.5629800471 -38.5824370314 -2.18473 -0.0752265 -0.197479 -2.18471 -0.062508 -0.201866 -2.18446 -0.0106477 -0.211054 -2.18452 -0.0438459 -0.206723 -6.95746 4.66317 2.32471 -6.94552 6.98067 3.26422 -0.0 0.0 -0.0 3.16883 -3.67892 5.85985 3.59457 -13.083 64.6543 2.53641 -51.4759 1.22292 -75.5785 -7.25876 5.31739 -1.57088 3.99955 -8.71394 -0.0 0.0 -0.0 4.68111 22.0301 -7.56084 -17.5391 18.5091 -67.1813 0.555568 15.3877 -0.0750556 -10.5402 0.488298 -1.25411 6.24713 -13.0347 -52.4979 0.0 0.0 0.0 -35.0802 9.29841 15.0575 -3.34553 0.123216 0.498576 -0.522781 19.5537 0.0780639 -6.9313 0.0 0.0 -0.0 0.0 -0.0 30.666 12.7475 -2.85951 -11.7726 -0.302946 -1.77812 -22.2162 14.2724 -3.6286 -7.67517 0.0 0.0 0.0 0.0 0.0 
2739.922625 728.115 -1472.91550332 37.8311945837 75.8647773843 -43.16531675 -2.57198 0.288982 0.58632 -2.57182 0.251088 0.603519 -2.56887 0.0897134 0.64748 -2.5694 0.190843 0.625187 -5.15517 5.62885 3.40431 -5.11933 7.8076 4.44576 -0.0 0.0 -0.0 2.29395 -2.98988 4.17712 -0.873787 -12.6943 67.3719 2.04856 -45.4154 0.857329 -77.852 -7.54874 5.30351 -1.58192 7.81258 -7.01971 -0.0 0.0 -0.0 4.99676 24.0885 -8.04792 -16.0985 19.3406 -66.2378 0.643966 17.6929 -0.100227 -11.235 0.528503 -1.33339 6.20542 -12.5242 -51.8823 0.0 0.0 0.0 -33.3172 8.52522 15.8322 -11.0983 0.295514 1.67492 -7.34594 16.3856 1.10092 -6.40825 0.0 0.0 -0.0 0.0 -0.0 26.1353 13.1183 -1.44361 -12.6239 -0.310592 -1.90851 -20.8519 10.4588 -3.31928 -2.44385 0.0 0.0 0.0 0.0 0.0 
2739.91664327 728.115 -1473.75778784 35.9881290532 75.2323332402 -41.2620701211 -2.57198 0.288982 0.58632 -2.57182 0.251088 0.603519 -2.56887 0.0897134 0.64748 -2.5694 0.190843 0.625187 -5.15517 5.62885 3.40431 -5.11933 7.8076 4.44576 -0.0 0.0 -0.0 2.29395 -2.98988 4.17712 -0.873787 -12.6943 67.3719 2.04856 -45.4154 0.857329 -77.852 -7.54874 5.30351 -1.58192 7.81258 -7.01971 -0.0 0.0 -0.0 4.99676 24.0885 -8.04792 -16.0985 19.3406 -66.2378 0.643966 17.6929 -0.100227 -11.235 0.528503 -1.33339 6.20542 -12.5242 -51.8823 0.0 0.0 0.0 -33.3172 8.52522 15.8322 -11.0983 0.295514 1.67492 -7.34594 16.3856 1.10092 -6.40825 0.0 0.0 -0.0 0.0 -0.0 26.1353 13.1183 -1.44361 -12.6239 -0.310592 -1.90851 -20.8519 10.4588 -3.31928 -2.44385 0.0 0.0 0.0 0.0 0.0 
2739.92286678 728.115 -1474.64159058 34.2202711697 74.5533468981 -39.4309708218 -2.57198 0.288982 0.58632 -2.57182 0.251088 0.603519 -2.56887 0.0897134 0.64748 -2.5694 0.190843 0.625187 -5.15517 5.62885 3.40431 -5.11933 7.8076 4.44576 -0.0 0.0 -0.0 2.29395 -2.98988 4.17712 -0.873787 -12.6943 67.3719 2.04856 -45.4154 0.857329 -77.852 -7.54874 5.30351 -1.58192 7.81258 -7.01971 -0.0 0.0 -0.0 4.99676 24.0885 -8.04792 -16.0985 19.3406 -66.2378 0.643966 17.6929 -0.100227 -11.235 0.528503 -1.33339 6.20542 -12.5242 -51.8823 0.0 0.0 0.0 -33.3172 8.52522 15.8322 -11.0983 0.295514 1.67492 -7.34594 16.3856 1.10092 -6.40825 0.0 0.0 -0.0 0.0 -0.0 26.1353 13.1183 -1.44361 -12.6239 -0.310592 -1.90851 -20.8519 10.4588 -3.31928 -2.44385 0.0 0.0 0.0 0.0 0.0 
2709.81413134 727.018 -1478.0651467 34.1686951174 73.7231722524 -40.4158100562 -2.69461 0.40418 0.937599 -2.69418 0.343702 0.961415 -2.68764 0.0863768 1.01734 -2.689 0.245955 0.990934 -4.69734 5.67246 3.58356 -4.65664 7.70357 4.61479 -0.0 0.0 -0.0 2.2281 -2.1031 4.12092 -2.42803 -11.9014 68.251 1.79437 -41.6294 0.682192 -77.1516 -7.4595 5.30902 -1.62093 8.5056 -6.95105 -0.0 0.0 -0.0 5.05002 24.7452 -8.09867 -14.2708 19.0534 -66.3793 0.67499 18.4885 -0.109861 -10.1349 0.46529 -1.20764 6.29451 -12.0316 -52.7014 0.0 0.0 0.0 -29.3604 7.4404 15.5593 -21.0847 0.281169 3.20517 -8.97083 14.5574 1.34256 -6.47826 0.0 0.0 -0.0 0.0 -0.0 23.997 13.055 -1.29075 -13.082 -0.313905 -1.97873 -18.2465 6.68551 -2.84326 -0.190546 0.0 0.0 0.0 0.0 0.0 
2679.78208955 732.318 -1486.37699882 36.8835438776 73.9170784042 -43.4649464623 -2.90728 0.403311 1.07975 -2.90669 0.333791 1.10322 -2.89923 0.0362687 1.15203 -2.90101 0.217744 1.13185 -3.72864 7.84547 4.6077 -3.64937 10.7809 5.96151 -0.0 0.0 -0.0 2.05307 -2.77049 3.72005 -3.55906 -12.3749 68.6971 1.38556 -34.4626 0.429752 -76.8729 -7.42396 5.31091 -1.78915 9.70132 -7.47974 -0.0 0.0 -0.0 6.13099 26.0728 -10.3195 -12.5539 16.1842 -66.1617 0.705705 19.2689 -0.119799 -9.50928 0.43043 -1.1356 6.27309 -12.2226 -52.5269 0.0 0.0 0.0 -27.0378 5.93054 15.0825 -25.2331 0.196941 3.83605 -17.8733 16.2379 2.70773 -6.19637 0.0 0.0 -0.0 0.0 -0.0 22.374 12.8774 -1.30104 -16.0686 -0.321734 -2.43684 -12.0571 4.55293 -1.85154 5.86296 -0.0 -0.0 0.0 0.0 0.0 
